<?xml version="1.0" encoding="utf-8"?>
<!-- Generator: Adobe Illustrator 28.0.0, SVG Export Plug-In . SVG Version: 6.00 Build 0)  -->
<svg version="1.1" id="Layer_1" xmlns="http://www.w3.org/2000/svg" xmlns:xlink="http://www.w3.org/1999/xlink" x="0px" y="0px"
	 viewBox="0 0 185 50" style="enable-background:new 0 0 185 50;" xml:space="preserve">
<style type="text/css">
	.st0{fill:#6DCBF6;}
	.st1{fill:#3D7589;}
	.st2{fill:#FFFFFF;}
	.st3{fill:#CC3333;}
	.st4{fill:#404040;}
</style>
<g>
	<g>
		<g>
			<g>
				<path class="st0" d="M22.6,41.2v-6.3h-4.5C19.3,37,20.8,39.1,22.6,41.2z"/>
			</g>
			<g>
				<path class="st0" d="M17.2,33.2h5.3v-8.8h-7.7C15.1,27.3,15.9,30.3,17.2,33.2z"/>
			</g>
			<g>
				<path class="st0" d="M22.6,12V5.6c-1.1,1.1-3,3.3-4.7,6.4H22.6z"/>
			</g>
			<g>
				<path class="st0" d="M14.9,21.9c0,0.3,0,0.5,0,0.8h7.7v-8.9H17C15.9,16.1,15.1,18.8,14.9,21.9z"/>
			</g>
			<g>
				<path class="st0" d="M20.6,5.2C15.7,5.8,11.3,8.3,8.4,12h7.5C17.4,9,19.3,6.7,20.6,5.2z"/>
			</g>
			<g>
				<path class="st0" d="M13.2,21.7c0.2-3,0.9-5.7,1.9-8H7.2c-1.6,2.6-2.6,5.6-2.8,8.9h8.8C13.2,22.3,13.2,22,13.2,21.7z"/>
			</g>
			<g>
				<path class="st0" d="M33.4,21.7c0,0.3,0,0.6,0,0.9h7.7c-0.2-3.3-1.2-6.3-2.8-8.9h-6.8C32.5,16.1,33.3,18.8,33.4,21.7z"/>
			</g>
			<g>
				<path class="st0" d="M13.2,24.4H4.4c0.1,3.2,1.1,6.3,2.8,8.8h8.2C14.1,30.3,13.4,27.3,13.2,24.4z"/>
			</g>
			<g>
				<path class="st0" d="M8.4,34.9c3,3.8,7.4,6.3,12.5,6.9c-1.9-2.3-3.4-4.6-4.6-6.9H8.4z"/>
			</g>
			<g>
				<path class="st0" d="M31.7,24.4h-7.5v8.8h5.1C30.8,30.3,31.6,27.3,31.7,24.4z"/>
			</g>
			<g>
				<path class="st0" d="M26,41.6c4.5-0.8,8.5-3.2,11.2-6.7h-6.7C29.3,37.2,27.8,39.4,26,41.6z"/>
			</g>
			<g>
				<path class="st0" d="M31.3,33.2h7.1c1.6-2.6,2.6-5.6,2.8-8.8h-7.7C33.3,27.3,32.6,30.3,31.3,33.2z"/>
			</g>
			<g>
				<path class="st0" d="M37.2,12c-2.7-3.4-6.5-5.8-10.9-6.6c1.3,1.4,3,3.7,4.5,6.6H37.2z"/>
			</g>
			<g>
				<path class="st1" d="M22.8,1.8c-12,0-21.7,9.7-21.7,21.7c0,12,9.7,21.7,21.7,21.7c12,0,21.7-9.7,21.7-21.7
					C44.5,11.5,34.8,1.8,22.8,1.8z M22.8,43.6c-11.1,0-20.1-9-20.1-20.1c0-11.1,9-20.1,20.1-20.1c11.1,0,20.1,9,20.1,20.1
					C42.9,34.6,33.9,43.6,22.8,43.6z"/>
			</g>
			<g>
				<path class="st0" d="M24.3,5.8V12h4.5C27.2,9.1,25.4,7,24.3,5.8z"/>
			</g>
			<g>
				<path class="st0" d="M31.7,21.9c-0.2-3-1-5.8-2.1-8.1h-5.4v8.9h7.5C31.8,22.4,31.8,22.1,31.7,21.9z"/>
			</g>
			<g>
				<path class="st0" d="M24.3,34.9V41c1.7-2,3.1-4,4.3-6.1H24.3z"/>
			</g>
		</g>
		<g>
			<path class="st2" d="M30.6,48.2L15.9,33.7l2.6-2.7l-3.9-4.2l16-16l16.1,16l-4,4.2l2.6,2.7L30.6,48.2L30.6,48.2z M18.8,26.1
				l11.8,11.8l3.4-3.4L23.6,24.2l6.9-6.9l7,7l-3.8,3.8l3.4,3.4l5.3-5.3L30.6,14.3L18.8,26.1L18.8,26.1z"/>
			<path class="st3" d="M30.6,42.8l-11-11l-1.9,1.9l12.9,12.9l12.9-12.9l-1.9-1.9L30.6,42.8z M35.8,35L25.4,24.6l5.1-5.1l5.2,5.2
				l-3.8,3.8l5.2,5.2l7.1-7.1L30.6,13L17,26.6l13.6,13.6L35.8,35z"/>
		</g>
	</g>
	<g>
		<g>
			<path class="st4" d="M55.5,8.9h2.9l-4.5,13.2h-2.6L46.8,8.9h2.9l2.9,10L55.5,8.9z"/>
			<path class="st4" d="M59.5,12.4h2.6v9.8h-2.6V12.4z"/>
			<path class="st3" d="M60.8,11.9l-1.4-1.4L60.8,9l1.4,1.4L60.8,11.9z"/>
			<path class="st4" d="M66.6,19c0.1,0.5,0.2,0.8,0.4,1c0.3,0.3,0.9,0.5,1.8,0.5c0.5,0,0.9-0.1,1.2-0.2c0.3-0.2,0.4-0.4,0.4-0.7
				c0-0.3-0.1-0.5-0.4-0.7c-0.2-0.1-1.1-0.4-2.7-0.8c-1.1-0.3-1.9-0.6-2.3-1c-0.5-0.4-0.7-1-0.7-1.8c0-0.9,0.4-1.7,1.1-2.3
				c0.7-0.6,1.7-1,3-1c1.2,0,2.2,0.2,3,0.7c0.8,0.5,1.2,1.3,1.3,2.5h-2.6c0-0.3-0.1-0.6-0.3-0.8C69.5,14.2,69,14,68.4,14
				c-0.6,0-1,0.1-1.2,0.3c-0.2,0.2-0.4,0.4-0.4,0.6c0,0.3,0.1,0.5,0.4,0.6c0.3,0.1,1.1,0.4,2.7,0.7c1,0.2,1.8,0.6,2.3,1.1
				c0.5,0.5,0.8,1.1,0.8,1.8c0,1-0.4,1.8-1.1,2.4c-0.7,0.6-1.8,0.9-3.3,0.9c-1.5,0-2.7-0.3-3.4-1C64.3,20.8,64,20,64,19H66.6z"/>
			<path class="st4" d="M77.3,12.4v5.9c0,0.6,0.1,1,0.2,1.3c0.2,0.5,0.7,0.7,1.4,0.7c0.9,0,1.5-0.4,1.8-1.1c0.2-0.4,0.3-0.9,0.3-1.5
				v-5.3h2.6v9.8H81v-1.4c0,0-0.1,0.1-0.2,0.3c-0.1,0.1-0.2,0.3-0.3,0.4c-0.4,0.4-0.8,0.6-1.2,0.7c-0.4,0.1-0.8,0.2-1.3,0.2
				c-1.4,0-2.4-0.5-2.9-1.6c-0.3-0.6-0.4-1.4-0.4-2.5v-5.9H77.3z"/>
			<path class="st4" d="M89.9,16.2c0.5-0.1,0.8-0.1,1-0.2c0.4-0.2,0.6-0.4,0.6-0.7c0-0.4-0.1-0.7-0.4-0.8c-0.3-0.2-0.7-0.2-1.2-0.2
				c-0.6,0-1,0.1-1.3,0.4c-0.2,0.2-0.3,0.5-0.4,0.9h-2.5c0.1-0.9,0.3-1.6,0.7-2.1c0.7-0.9,1.8-1.3,3.5-1.3c1.1,0,2,0.2,2.9,0.6
				c0.8,0.4,1.3,1.2,1.3,2.4v4.5c0,0.3,0,0.7,0,1.1c0,0.3,0.1,0.6,0.2,0.7c0.1,0.1,0.2,0.2,0.4,0.3v0.4h-2.8
				c-0.1-0.2-0.1-0.4-0.2-0.6c0-0.2-0.1-0.4-0.1-0.6c-0.4,0.4-0.8,0.7-1.2,1c-0.6,0.3-1.2,0.5-1.9,0.5c-0.9,0-1.6-0.3-2.2-0.8
				c-0.6-0.5-0.9-1.2-0.9-2.1c0-1.2,0.5-2.1,1.4-2.6c0.5-0.3,1.3-0.5,2.3-0.6L89.9,16.2z M91.4,17.4c-0.2,0.1-0.3,0.2-0.5,0.2
				c-0.2,0.1-0.4,0.1-0.7,0.2l-0.6,0.1c-0.5,0.1-0.9,0.2-1.2,0.4c-0.4,0.2-0.6,0.6-0.6,1.1c0,0.4,0.1,0.8,0.4,0.9
				c0.2,0.2,0.5,0.3,0.9,0.3c0.6,0,1.1-0.2,1.5-0.5c0.5-0.3,0.7-0.9,0.7-1.8V17.4z"/>
			<path class="st4" d="M98.8,22.1h-2.6V8.9h2.6V22.1z"/>
		</g>
	</g>
	<g>
		<path class="st4" d="M111.7,16.4c-0.8,0.6-1.9,1-3.3,1h-2.8v4.8h-2.7V8.9h5.7c1.3,0,2.4,0.3,3.1,1c0.8,0.7,1.2,1.7,1.2,3.2
			C112.9,14.7,112.5,15.8,111.7,16.4z M109.6,11.7c-0.3-0.3-0.8-0.4-1.5-0.4h-2.5v3.9h2.5c0.6,0,1.1-0.2,1.5-0.5
			c0.3-0.3,0.5-0.8,0.5-1.5C110.1,12.4,109.9,12,109.6,11.7z"/>
		<path class="st4" d="M118.7,16.2c0.5-0.1,0.8-0.1,1-0.2c0.4-0.2,0.6-0.4,0.6-0.7c0-0.4-0.1-0.7-0.4-0.8c-0.3-0.2-0.7-0.2-1.2-0.2
			c-0.6,0-1,0.1-1.3,0.4c-0.2,0.2-0.3,0.5-0.4,0.9h-2.5c0.1-0.9,0.3-1.6,0.7-2.1c0.7-0.9,1.8-1.3,3.5-1.3c1.1,0,2,0.2,2.9,0.6
			c0.8,0.4,1.3,1.2,1.3,2.4v4.5c0,0.3,0,0.7,0,1.1c0,0.3,0.1,0.6,0.2,0.7c0.1,0.1,0.2,0.2,0.4,0.3v0.4h-2.8
			c-0.1-0.2-0.1-0.4-0.2-0.6c0-0.2-0.1-0.4-0.1-0.6c-0.4,0.4-0.8,0.7-1.2,1c-0.6,0.3-1.2,0.5-1.9,0.5c-0.9,0-1.6-0.3-2.2-0.8
			c-0.6-0.5-0.9-1.2-0.9-2.1c0-1.2,0.5-2.1,1.4-2.6c0.5-0.3,1.3-0.5,2.3-0.6L118.7,16.2z M120.3,17.4c-0.2,0.1-0.3,0.2-0.5,0.2
			c-0.2,0.1-0.4,0.1-0.7,0.2l-0.6,0.1c-0.5,0.1-0.9,0.2-1.2,0.4c-0.4,0.2-0.6,0.6-0.6,1.1c0,0.4,0.1,0.8,0.4,0.9
			c0.2,0.2,0.5,0.3,0.9,0.3c0.6,0,1.1-0.2,1.5-0.5c0.5-0.3,0.7-0.9,0.7-1.8V17.4z"/>
		<path class="st4" d="M130.5,12.1c0,0,0.1,0,0.2,0v2.6c-0.2,0-0.3,0-0.4,0c-0.1,0-0.2,0-0.3,0c-1,0-1.7,0.3-2.1,1
			c-0.2,0.4-0.3,1-0.3,1.7v4.7h-2.6v-9.8h2.4v1.7c0.4-0.7,0.7-1.1,1-1.3c0.5-0.4,1.1-0.6,1.9-0.6C130.4,12.1,130.5,12.1,130.5,12.1z
			"/>
		<path class="st4" d="M136.1,16.2c0.5-0.1,0.8-0.1,1-0.2c0.4-0.2,0.6-0.4,0.6-0.7c0-0.4-0.1-0.7-0.4-0.8c-0.3-0.2-0.7-0.2-1.2-0.2
			c-0.6,0-1,0.1-1.3,0.4c-0.2,0.2-0.3,0.5-0.4,0.9h-2.5c0.1-0.9,0.3-1.6,0.7-2.1c0.7-0.9,1.8-1.3,3.5-1.3c1.1,0,2,0.2,2.9,0.6
			c0.8,0.4,1.3,1.2,1.3,2.4v4.5c0,0.3,0,0.7,0,1.1c0,0.3,0.1,0.6,0.2,0.7c0.1,0.1,0.2,0.2,0.4,0.3v0.4H138c-0.1-0.2-0.1-0.4-0.2-0.6
			c0-0.2-0.1-0.4-0.1-0.6c-0.4,0.4-0.8,0.7-1.2,1c-0.6,0.3-1.2,0.5-1.9,0.5c-0.9,0-1.6-0.3-2.2-0.8c-0.6-0.5-0.9-1.2-0.9-2.1
			c0-1.2,0.5-2.1,1.4-2.6c0.5-0.3,1.3-0.5,2.3-0.6L136.1,16.2z M137.7,17.4c-0.2,0.1-0.3,0.2-0.5,0.2c-0.2,0.1-0.4,0.1-0.7,0.2
			l-0.6,0.1c-0.5,0.1-0.9,0.2-1.2,0.4c-0.4,0.2-0.6,0.6-0.6,1.1c0,0.4,0.1,0.8,0.4,0.9c0.2,0.2,0.5,0.3,0.9,0.3
			c0.6,0,1.1-0.2,1.5-0.5c0.5-0.3,0.7-0.9,0.7-1.8V17.4z"/>
		<path class="st4" d="M147.6,12.5c0.5,0.3,0.8,0.6,1.1,1.1V8.9h2.6v13.2h-2.5v-1.4c-0.4,0.6-0.8,1-1.2,1.3c-0.5,0.3-1,0.4-1.7,0.4
			c-1.1,0-2.1-0.5-2.9-1.4c-0.8-0.9-1.2-2.1-1.2-3.6c0-1.7,0.4-3,1.2-3.9c0.8-1,1.8-1.4,3.1-1.4C146.6,12.1,147.2,12.3,147.6,12.5z
			 M148.2,19.5c0.4-0.5,0.6-1.2,0.6-2.1c0-1.2-0.3-2.1-0.9-2.6c-0.4-0.3-0.8-0.5-1.3-0.5c-0.7,0-1.3,0.3-1.6,0.8
			c-0.4,0.6-0.5,1.3-0.5,2.1c0,0.9,0.2,1.6,0.5,2.2c0.4,0.5,0.9,0.8,1.6,0.8C147.3,20.3,147.9,20,148.2,19.5z"/>
		<path class="st4" d="M153.7,12.4h2.6v9.8h-2.6V12.4z"/>
		<path class="st3" d="M155,11.9l-1.4-1.4L155,9l1.4,1.4L155,11.9z"/>
		<path class="st4" d="M163.6,12.4c0.6,0.3,1.1,0.7,1.5,1.4v-1.4h2.5v9.3c0,1.3-0.2,2.2-0.6,2.9c-0.7,1.1-2.1,1.6-4.2,1.6
			c-1.2,0-2.3-0.2-3.1-0.7c-0.8-0.5-1.2-1.2-1.3-2.2h2.8c0.1,0.3,0.2,0.5,0.4,0.6c0.3,0.2,0.7,0.3,1.4,0.3c0.9,0,1.5-0.3,1.8-0.9
			c0.2-0.4,0.3-1.1,0.3-2v-0.6c-0.2,0.4-0.5,0.7-0.8,0.9c-0.5,0.4-1.2,0.6-2,0.6c-1.3,0-2.3-0.4-3-1.3c-0.7-0.9-1.1-2.1-1.1-3.6
			c0-1.5,0.4-2.7,1.1-3.7c0.7-1,1.7-1.5,3.1-1.5C162.8,12.1,163.2,12.2,163.6,12.4z M164.5,19.4c0.4-0.5,0.6-1.2,0.6-2.2
			c0-0.9-0.2-1.6-0.6-2.1c-0.4-0.5-0.9-0.7-1.6-0.7c-0.9,0-1.5,0.4-1.8,1.3c-0.2,0.4-0.3,1-0.3,1.7c0,0.6,0.1,1.1,0.3,1.5
			c0.3,0.8,1,1.2,1.9,1.2C163.5,20,164,19.8,164.5,19.4z"/>
		<path class="st4" d="M182.2,12.4c0.4,0.2,0.8,0.5,1.1,0.9c0.3,0.3,0.5,0.8,0.6,1.3c0.1,0.3,0.1,0.8,0.1,1.4l0,6.2h-2.6v-6.2
			c0-0.4-0.1-0.7-0.2-0.9c-0.2-0.5-0.6-0.7-1.3-0.7c-0.7,0-1.2,0.3-1.5,0.9c-0.1,0.3-0.2,0.7-0.2,1.1v5.8h-2.6v-5.8
			c0-0.6-0.1-1-0.2-1.3c-0.2-0.5-0.6-0.7-1.3-0.7c-0.7,0-1.2,0.2-1.5,0.7c-0.1,0.3-0.2,0.7-0.2,1.2v5.9h-2.6v-9.8h2.5v1.4
			c0.3-0.5,0.6-0.9,0.9-1.1c0.5-0.4,1.1-0.6,1.9-0.6c0.7,0,1.3,0.2,1.8,0.5c0.4,0.3,0.7,0.7,0.8,1.2c0.3-0.6,0.7-1,1.2-1.3
			c0.5-0.3,1.1-0.4,1.8-0.4C181.3,12.2,181.7,12.2,182.2,12.4z"/>
	</g>
	<g>
		<path class="st4" d="M47.6,33c0-2.1,0.6-3.8,1.7-5c1.1-1.2,2.6-1.8,4.4-1.8c1.2,0,2.2,0.3,3.2,0.8s1.7,1.3,2.2,2.4
			c0.5,1,0.7,2.2,0.7,3.4c0,1.3-0.3,2.5-0.8,3.5c-0.5,1-1.3,1.8-2.2,2.3c-1,0.5-2,0.8-3.1,0.8c-1.2,0-2.3-0.3-3.2-0.9
			s-1.7-1.4-2.2-2.4C47.8,35.2,47.6,34.1,47.6,33z M49.3,33c0,1.5,0.4,2.8,1.2,3.6c0.8,0.9,1.9,1.3,3.1,1.3c1.3,0,2.3-0.4,3.1-1.3
			s1.2-2.2,1.2-3.8c0-1-0.2-1.9-0.5-2.7c-0.4-0.8-0.9-1.4-1.5-1.8c-0.7-0.4-1.4-0.6-2.3-0.6c-1.2,0-2.2,0.4-3.1,1.2
			C49.7,29.7,49.3,31.1,49.3,33z"/>
		<path class="st4" d="M61.3,39.2V30h1.4v1.3c0.7-1,1.7-1.5,2.9-1.5c0.6,0,1.1,0.1,1.5,0.3c0.5,0.2,0.8,0.5,1.1,0.8s0.4,0.7,0.5,1.2
			c0.1,0.3,0.1,0.8,0.1,1.5v5.7h-1.6v-5.6c0-0.6-0.1-1.1-0.2-1.4c-0.1-0.3-0.3-0.6-0.6-0.8s-0.7-0.3-1.1-0.3c-0.7,0-1.2,0.2-1.7,0.6
			c-0.5,0.4-0.7,1.2-0.7,2.4v5.1H61.3z"/>
		<path class="st4" d="M70.8,39.2V26.5h1.6v12.8H70.8z"/>
		<path class="st4" d="M74.3,28.3v-1.8h1.6v1.8H74.3z M74.3,39.2V30h1.6v9.3H74.3z"/>
		<path class="st4" d="M77.8,39.2V30h1.4v1.3c0.7-1,1.7-1.5,2.9-1.5c0.6,0,1.1,0.1,1.5,0.3c0.5,0.2,0.8,0.5,1.1,0.8s0.4,0.7,0.5,1.2
			c0.1,0.3,0.1,0.8,0.1,1.5v5.7h-1.6v-5.6c0-0.6-0.1-1.1-0.2-1.4c-0.1-0.3-0.3-0.6-0.6-0.8s-0.7-0.3-1.1-0.3c-0.7,0-1.2,0.2-1.7,0.6
			c-0.5,0.4-0.7,1.2-0.7,2.4v5.1H77.8z"/>
		<path class="st4" d="M93.6,36.2l1.6,0.2c-0.3,0.9-0.7,1.7-1.4,2.2c-0.7,0.5-1.6,0.8-2.6,0.8c-1.4,0-2.4-0.4-3.2-1.3
			c-0.8-0.8-1.2-2-1.2-3.5c0-1.6,0.4-2.8,1.2-3.6c0.8-0.9,1.8-1.3,3.1-1.3c1.2,0,2.2,0.4,3,1.3c0.8,0.8,1.2,2,1.2,3.6
			c0,0.1,0,0.2,0,0.4h-6.9c0.1,1,0.3,1.8,0.9,2.3c0.5,0.5,1.2,0.8,1.9,0.8c0.6,0,1.1-0.2,1.5-0.5C93.1,37.4,93.4,36.9,93.6,36.2z
			 M88.5,33.7h5.2c-0.1-0.8-0.3-1.4-0.6-1.8c-0.5-0.6-1.1-0.9-1.9-0.9c-0.7,0-1.3,0.2-1.8,0.7S88.5,32.9,88.5,33.7z"/>
	</g>
</g>
</svg>
